<svg xmlns="http://www.w3.org/2000/svg" version="1.1" xmlns:xlink="http://www.w3.org/1999/xlink" xmlns:svgjs="http://svgjs.dev/svgjs" width="2000" height="2242" viewBox="0 0 2000 2242"><g transform="matrix(1,0,0,1,-3.115264797507507,0)"><svg viewBox="0 0 321 360" data-background-color="#ffffff" preserveAspectRatio="xMidYMid meet" height="2242" width="2000" xmlns="http://www.w3.org/2000/svg" xmlns:xlink="http://www.w3.org/1999/xlink"><g id="tight-bounds" transform="matrix(1,0,0,1,0.5,0)"><svg viewBox="0 0 320 360" height="360" width="320"><g><svg></svg></g><g><svg viewBox="0 0 320 360" height="360" width="320"><g><path d="M20.961 227.22l3.726 4.658-1.863-6.056c-0.466-2.795-3.726 0.466-1.863 1.398M25.153 224.425c1.397 2.329 2.795 4.658 2.795 6.987 0 3.261 2.795 4.658 5.123 5.589-3.261-3.726-5.124-13.974-7.918-12.576M204.017 26.929c7.918 0 15.371-0.932 23.756 0.931 20.495 5.124 37.729 15.371 49.374 29.811l32.606 52.169c1.397 13.042 4.192 27.482 3.726 43.319 3.261 0 2.795-4.658 6.521-5.59-3.726 9.316-5.59 20.961-6.521 34.469-2.329-7.453 0-18.632 0.466-24.687-3.261 5.124-5.124 1.397-5.124-0.932 0.466-3.726-1.397-3.261-2.795-4.658-5.124-4.658-8.384-9.782-12.11-17.7 2.329-6.055 2.795-14.905-4.658-19.563-2.329-1.397-5.124-3.726-6.521-7.453-1.863-5.124-5.124-11.179-4.193-19.097 0.466-2.329-6.987 5.124-11.179 1.863-18.166-12.576-36.332-27.016-58.224-39.127-11.645 0-20.029-4.192-24.221-9.316-3.726-4.658-0.932-10.713 4.658-11.179 3.261 0 6.987-0.932 9.782 0.932 0.466-1.863 2.329-4.192 4.657-4.192M157.904 16.215l0.932 0.466c4.658 0.932 6.987 7.453 12.11 5.124 0 3.261 0.466 6.521-0.466 8.85-1.397 3.726-5.59 3.726-8.85 3.726-31.208-1.863-49.374 11.179-68.471 22.358-5.124 3.261-10.713 5.59-14.906 9.782-20.029 18.632-41.921 35.866-47.045 70.335l-4.192 38.195c-0.466 4.192-5.124 8.384-4.192 13.508l3.26 22.824c-3.261-3.261-5.124 0.932-4.192 2.795 0.466 1.397 2.329 6.055 5.124 1.863 3.726 6.987 7.453 20.495 12.576 26.55 15.837 18.632 36.332 35.4 53.101 52.169 4.192-0.932 7.453-0.932 8.384-3.727 1.397 2.795-1.397 5.59-3.726 6.056 7.453 4.658 15.837 8.85 27.016 9.781 14.44 0.932 27.948 3.261 40.524 6.522 6.521-1.863 13.042-2.795 20.029-3.261 2.329 0 3.726-3.726 6.521-4.658l0.466-4.658c2.795 4.192 2.329-1.397 0.466-4.192 3.261 2.795 4.192 5.124 5.589 6.987 0-1.397 3.726-6.521 3.727-0.466l0.931-6.055c1.397-0.932 1.863 5.124 3.261 0.931 1.397-4.192 4.192-0.932 6.987-2.329-0.932 1.863-0.466 5.59 2.794 3.261l3.727-3.261c2.329 5.59 6.055 3.261 7.918 2.329 20.495-13.042 40.99-28.413 60.553-43.784l-0.466 6.055 2.329-7.453c2.329 2.329 4.192 0.466 5.124-0.931 2.795-4.658 6.521-9.316 12.577-13.508-7.453 20.029-16.303 35.866-27.482 48.908l-4.658 5.59c0 3.261-0.932 7.453-4.658 7.918-1.863 0.466-5.59-0.932-8.384 1.863-1.397 1.863 3.261 5.59-0.466 2.795-3.261-2.329-6.521 0-10.248 0.932-2.795 0.932 1.863 3.726 2.795 5.589 0.932 1.863 1.863 3.726 1.398 6.056l-5.124-5.59c-6.055 3.261-9.782 9.316-14.906 13.974-2.329 1.863-1.397 5.124-1.397 7.918-3.261 0-6.987-0.932-8.85 0.932-1.397 1.863-0.932 4.658-0.932 7.453-4.658-0.466-5.124-7.453-9.315-6.056-4.192 0.932-8.85 1.397-12.577 3.727 2.795 5.59-4.658 2.329-3.726 3.26-6.987-4.192-13.042-7.453-20.495-4.658-15.837-5.124-35.4-2.795-49.84-0.931 0-2.329 0.466-4.658-0.466-5.124-0.932 2.329-3.726 1.397-3.26 1.397-8.85-6.055-17.7-9.782-27.016-14.905-8.384 0.932-16.303-3.261-18.632-5.59-6.521-6.055-13.974-2.795-20.029-4.192-13.042-3.261-17.7-16.769-19.098-26.084-0.932-4.658-4.658-6.521-6.055-6.056-6.055-19.563-15.371-37.263-22.824-55.429-1.863-4.658-1.397-9.316-1.397-14.44 2.329 0.932 4.658 0.466 4.192-2.794-2.329-15.371-7.918-27.016-13.974-38.195 3.261-15.837 3.726-34.469 11.179-48.443 6.521-12.576 18.632-19.098 27.016-29.811 2.795-3.726 2.795-8.85 5.59-12.11 9.316-9.316 18.632-19.098 28.879-27.482 4.658-3.726 10.247 0 17.234-1.397 2.329-8.384 11.645-15.837 20.495-13.508 3.726 0.932 11.179-8.85 13.508-9.782 3.726-1.397 1.863 3.726 1.863 6.987 8.85-6.987 20.961-10.713 32.14-14.906" fill="#c10000" fill-rule="nonzero" stroke="none" stroke-width="1" stroke-linecap="butt" stroke-linejoin="miter" stroke-miterlimit="10" stroke-dasharray="" stroke-dashoffset="0" font-family="none" font-weight="none" font-size="none" text-anchor="none" style="mix-blend-mode: normal" data-fill-palette-color="tertiary"></path></g><g transform="matrix(1,0,0,1,80.5722226890756,90)"><svg viewBox="0 0 158.8555546218488 180" height="180" width="158.8555546218488"><g><svg viewBox="0 0 158.8555546218488 180" height="180" width="158.8555546218488"><g><svg viewBox="0 0 158.8555546218488 180" height="180" width="158.8555546218488"><g id="textblocktransform"><svg viewBox="0 0 158.8555546218488 180" height="180" width="158.8555546218488" id="textblock"><g><svg viewBox="0 0 158.8555546218488 180" height="180" width="158.8555546218488"><path d="M158.484 38.607C157.737 19.923 155.608 14.728 155.608 14.728 149.074-4.516 140.919-0.368 133.592 2.397 120.658 2.509 107.775 6.62 94.87 8.824 67.783 9.161 40.465 3.63 13.512 17.27 10.98 21.455-2.627 18.092 0.45 40.998 1.257 50.527 4.199 61.102 4.11 69.846 4.513 71.378 5.073 67.866 5.312 70.07 6.149 76.012 7.515 73.209 8.635 76.722 7.075 86.101 8.195 93.911 9.263 102.095 7.381 104.225 4.969 103.216 3.886 110.278 3.774 115.398 3.169 114.426 2.504 114.202 2.019 114.052 1.04 114.613 1.205 116.22 1.765 121.713-0.64 124.889 0.869 130.27-0.17 136.099 1.585 141.144 1.347 147.459 1.317 148.73 1.481 149.813 1.742 150.112 2.9 151.719 1.212 154.858 1.391 158.258 13.266 181.501 26.148 165.433 38.314 176.12 41.473 168.647 39.098 178.773 40.36 177.204 41.346 175.373 42.063 182.959 43.176 178.661 43.347 177.428 43.086 174.514 43.698 175.074 44.019 175.373 44.303 175.298 44.348 173.579 44.415 171.001 43.825 172.608 43.668 171.263 45.364 164.462 44.946 180.642 46.536 179.969 46.462 177.989 45.999 175.149 46.947 175.522 47.888 172.682 47.918 170.328 48.754 176.718 48.784 178.101 48.933 179.072 49.172 179.745 51.786 172.795 54.385 182.211 57.126 179.072 58.806 175.635 60.419 180.941 62.122 179.633 62.72 178.587 63.325 176.718 63.9 179.857 70.942 180.53 78.448 177.727 85.124 179.969 102.965 175.784 122.032 181.688 140.844 176.158 145.28 174.028 149.888 171.001 154.212 168.572 154.212 168.572 157.714 161.921 157.714 132.026S158.461 105.869 158.573 82.065C158.685 58.262 159.208 57.29 158.461 38.607Z" opacity="1" fill="#c10000" data-fill-palette-color="tertiary"></path><g transform="matrix(1,0,0,1,27.07200000000001,19.1)"><svg width="104.71155462184878" viewBox="0.1 -25.2 25.107141121084997 34" height="141.8" data-palette-color="#ffffff"><path d="M5.6 8.8L5.6 8.8 4.95 8.8Q4.45 7.55 4.45 6.68 4.45 5.8 4.55 5.3L4.55 5.3 5.5 5.3Q7.1 5.3 8.03 4.65 8.95 4 9.85 2.15L9.85 2.15 11.65-1.7 3.85-20.95Q3.3-22.4 2.6-22.95 1.9-23.5 0.2-23.7L0.2-23.7Q0.1-24.3 0.1-24.65 0.1-25 0.1-25.2L0.1-25.2 10.4-25.2Q10.6-24.6 10.6-23.7L10.6-23.7Q8.3-23.5 7.1-23L7.1-23 13.45-5.6Q13.6-6.4 14-7.4L14-7.4 19.2-20.6Q19.5-21.35 19.5-21.9 19.5-22.45 19.2-22.8L19.2-22.8Q18.55-23.5 16.15-23.7L16.15-23.7Q15.95-24.7 16.05-25.2L16.05-25.2 25.2-25.2Q25.25-24.5 24.95-23.7L24.95-23.7Q23.95-23.55 22.7-23.2L22.7-23.2 11.85 2.7Q10.5 5.95 9.1 7.38 7.7 8.8 5.6 8.8Z" opacity="1" transform="matrix(1,0,0,1,0,0)" fill="#ffffff" class="wordmark-text-0" data-fill-palette-color="quaternary" id="text-0"></path></svg></g></svg></g></svg></g></svg></g><g></g></svg></g></svg></g></svg></g><defs></defs></svg><rect width="320" height="360" fill="none" stroke="none" visibility="hidden"></rect></g></svg></g></svg>